PathFileType	4	(X/Y/Z)	Patient4_TMGait_0pt4_03_left_36.trc.trc
DataRate	CameraRate	NumFrames	NumMarkers	Units	OrigDataRate	OrigDataStartFrame	OrigNumFrames
72.164948453608	72.164948453608	5	33	mm	72.164948453608	124	       141
Frame#	Time	Sacral			L.Shoulder			Chest			R.Shoulder			Neck			R.ASIS			L.ASIS			R.Thigh.Superior			R.Thigh.Lateral			R.Thigh.Inferior			R.Patella			L.Thigh.Superior			L.Thigh.Lateral			L.Thigh.Inferior			L.Patella			L.Shank.Superior			L.Shank.Lateral			L.Shank.Inferior			R.Shank.Superior			R.Shank.Lateral			R.Shank.Inferior			R.Heel			R.Midfoot.Superior			R.Midfoot.Lateral			R.Toe			L.Heel			L.Midfoot.Lateral			L.Midfoot.Superior			L.Toe			L.Elbow			L.Wrist			R.Elbow			R.Wrist			
		X1	Y1	Z1	X2	Y2	Z2	X3	Y3	Z3	X4	Y4	Z4	X5	Y5	Z5	X6	Y6	Z6	X7	Y7	Z7	X8	Y8	Z8	X9	Y9	Z9	X10	Y10	Z10	X11	Y11	Z11	X12	Y12	Z12	X13	Y13	Z13	X14	Y14	Z14	X15	Y15	Z15	X16	Y16	Z16	X17	Y17	Z17	X18	Y18	Z18	X19	Y19	Z19	X20	Y20	Z20	X21	Y21	Z21	X22	Y22	Z22	X23	Y23	Z23	X24	Y24	Z24	X25	Y25	Z25	X26	Y26	Z26	X27	Y27	Z27	X28	Y28	Z28	X29	Y29	Z29	X30	Y30	Z30	X31	Y31	Z31	X32	Y32	Z32	X33	Y33	Z33	

124	49.354428571429	863.147547067944	1003.577933635845	534.025194330005	1016.574731645982	1428.273042206203	328.223330213794	1145.953511409297	1356.123624259303	467.447902990555	1097.463929078797	1428.169686954348	655.014627199985	1026.694792545486	1488.360668993669	486.496721739210	1105.250047096581	930.121496081372	611.548276860365	1047.313997778311	956.158490187304	343.391913878322	1099.444928564979	718.915694341098	581.385010229938	1001.825589984578	624.706037704309	653.153219421300	1053.491443352566	559.753946936494	567.295068160632	1034.649568085795	474.647328066986	574.418248293822	1119.315592090613	761.867503612948	360.633835176655	1050.652801488468	635.939548236505	295.050043462841	1157.983818860919	574.111285561053	344.791835383506	1180.008574711642	509.500252321137	341.655941469647	1160.773133799079	438.217007409658	332.967720086084	1085.948328258403	310.559446504452	289.849490586799	1174.456221355325	208.911513951446	336.530059606618	993.835878124801	391.888027225664	583.847251240199	911.883304970061	300.057584800797	651.065664449479	933.837832303074	200.187679619193	585.620991601178	780.992206853089	44.298098017827	562.244131271121	952.141728862285	95.310460899721	594.751531704409	864.984628608922	37.085482371240	635.685770720277	1072.836565822455	41.490677532135	621.996062530097	1086.223145894519	40.525211364224	383.800701015148	1153.360340838427	38.281678591109	297.960250849116	1233.180915424686	106.736570235987	314.394865068151	1360.615343111665	64.150799294178	276.684028832476	919.820856127392	1089.552999765651	214.441487946009	986.113873080693	838.947615865530	165.470280289002	1172.806249330467	1086.267326657152	756.495813351034	1365.498655196001	1070.300674038860	594.384215403577	
125	49.368285714286	864.138080922162	1002.565310662615	530.738573869201	1017.062837508426	1426.963576931384	324.622250761343	1146.056938323862	1355.633638785570	464.570215190676	1096.558322156134	1427.960248778421	651.737867037286	1026.277597577820	1487.512775814005	482.909159069123	1106.009969686209	929.415795324321	609.728644519877	1049.469112293901	955.034297736714	341.328965215939	1099.628225483052	717.851886144582	580.078390479576	1001.016311917355	624.100410755403	651.505193198750	1052.740149099627	558.732416287553	566.073836620317	1033.199656451474	473.295543583752	573.015352410032	1122.026591125028	760.866348130711	359.278186597965	1052.442034352158	634.526076401824	294.913979538757	1159.960007119498	573.240638340129	344.675166335601	1180.864382537513	507.367461251393	342.359180613717	1160.788741532479	435.483774728130	333.753369433030	1083.684183810564	309.056946968784	290.979322229349	1169.669309897867	205.942454660502	338.663636297415	991.479199314754	390.968446111215	582.705708311126	908.614380000815	300.145500745633	650.379446959803	929.450461698264	199.880020807335	585.181219934179	775.440669888197	44.723295312705	562.312940303056	946.737584852447	95.366562411373	594.750364048211	859.478810295057	37.202546588493	635.698487086232	1067.368326378372	41.277121791177	622.046118426793	1077.307760957237	39.801147291132	385.991870669576	1144.229093601196	37.097301156264	299.895327513088	1225.753423563227	103.397083404666	317.255853944170	1352.424686978764	58.155910255241	278.698190902867	921.166588056552	1088.117302313454	210.782650548256	987.623369775609	837.270875745566	163.290593929489	1177.033920862517	1087.099818573586	751.949516548834	1369.087869276729	1080.378274383388	588.878191338589	
126	49.382142857143	865.123087301314	1001.721499768437	527.364185626184	1017.622026073169	1425.797672591728	320.900809781197	1146.245987008899	1355.249459516961	461.543723060717	1095.824981822189	1427.941293481695	648.290293888196	1025.958707302000	1486.827333597313	479.181132256143	1106.775892859099	928.863234236292	607.743762926627	1051.576004876107	954.178924851326	339.106387680271	1100.050981694101	716.961607248075	578.609160838111	1000.593530363180	623.562132080495	649.673715554068	1052.493743120565	557.808625921728	564.678980875515	1032.349725326830	471.910710487976	571.509589365098	1124.816489673346	760.303108246993	358.010326742995	1054.774866308553	633.668784852473	294.397268067917	1162.284241036838	572.818435053465	344.440350627500	1182.010352000370	505.679075183003	342.841544521407	1161.206821702417	433.210695517158	334.198438521978	1082.106206906343	308.020374135705	291.348038359012	1165.378036932210	203.471899495709	340.265471537967	989.567231748821	390.072376755100	581.479929019199	905.675213903652	300.383231219336	649.630396838460	925.275671670123	199.677358773308	584.722707090882	769.921620490607	45.449585048713	562.411048520421	941.456833113405	95.472862071436	594.788282513052	854.025813973948	37.441113670488	635.723189127036	1061.965336000285	40.995420356020	622.103143259946	1069.016283349464	39.224546518000	387.413179475752	1135.860808270050	36.307640210188	301.176186504896	1218.737017995139	100.829969841672	319.539101677363	1344.846481494261	53.466086547706	280.355533491550	922.845868146941	1086.731308067210	207.002149974255	989.358612708597	835.603884949459	161.141205125045	1181.098031078458	1088.191487963548	747.503030618456	1372.478075721791	1090.121775218269	583.894323849550	
127	49.396000000000	866.097079145671	1001.084163992756	523.926369634049	1018.245865285846	1424.842550099290	317.101296494083	1146.522412121716	1355.003451692408	458.393386857375	1095.287888684539	1428.147349687225	644.700131552192	1025.750979518668	1486.349563049560	475.352002754310	1107.538032803804	928.518478745564	605.574633063647	1053.582713004693	953.619929450375	336.694234421020	1100.686880407947	716.303090615888	576.960194052775	1000.572123618684	623.139291630051	647.675400933598	1052.768733862147	557.025063475112	563.126415195889	1032.154775306884	470.525349308039	569.969854872640	1127.575318355608	760.173349528609	356.766428245166	1057.538667769404	633.362969319265	293.425088620329	1164.810274362893	572.781532722553	343.969847336387	1183.333428248696	504.433919174957	342.965131496052	1161.918669112416	431.423384224182	334.237550497567	1081.147143490158	307.429067918392	290.972105312840	1161.605590005705	201.543470827856	341.297834129575	988.138646190504	389.245808602223	580.215416810675	903.083660884091	300.827616076704	648.831012827837	921.353677972752	199.634377866589	584.271805165851	764.458018933278	46.574232157850	562.541647132887	936.340403295361	95.645609789976	594.879325099335	848.639104150573	37.853024132999	635.762849933758	1056.625136987875	40.645159862894	622.166021552303	1061.533526755015	38.819599287453	388.154239563726	1128.401822876039	35.863640851475	301.868144797038	1212.262687077960	99.039814604450	321.177865473896	1338.000847128522	50.091829047707	281.578906811284	924.870954157630	1085.461731420784	203.135716108676	991.328028215181	834.016661897232	159.045231711398	1184.929384764465	1089.534594266583	743.175044380402	1375.669412471736	1099.359769596789	579.427898683577	
128	49.409857142857	867.062556906188	1000.672072637161	520.430156503865	1018.918178739769	1424.151934091989	313.258772604927	1146.875889467390	1354.928797589805	455.144658383655	1094.937289740550	1428.599112493045	640.997337267129	1025.650020764669	1486.110346414942	471.456739751587	1108.292872887324	928.423540239470	603.200712506044	1055.466059143388	953.360166170047	334.063606737204	1101.514414840234	715.922426584567	575.118277128271	1000.969413929647	622.870942806811	645.532962177472	1053.587047641518	556.418072868082	561.438451792064	1032.674286345058	469.168503119545	568.472593661271	1130.209684050851	760.419390417472	355.452030029001	1060.551586329989	633.532344975516	291.973305422724	1167.352111605961	573.010786368829	343.165572842635	1184.683161623371	503.567987558410	342.649136921534	1162.758554587478	430.079725540369	333.863875008950	1080.630263851800	307.209045623169	289.962489800945	1158.262903909478	200.125934967972	341.801739940958	987.240595042358	388.529991259181	578.961872033090	900.866025909713	301.535154685452	647.995307970862	917.733281722708	199.806605695964	583.857508109144	759.083065535990	48.201034100601	562.705838968729	931.430672568030	95.901281107956	595.033696882737	843.333854268754	38.500287166672	635.819493310917	1051.337281462598	40.233996010296	622.231894277327	1054.867834867632	38.583187798247	388.357901104790	1121.819978416009	35.690204082723	302.085491293258	1206.330773199151	97.941033222640	322.197209770238	1331.859074008281	47.887079720929	282.358721234055	927.246675894379	1084.364735887373	199.210740763502	993.562185686792	832.575188584071	157.019807978108	1188.442557633293	1091.107597735788	738.980296762949	1378.655954665756	1107.924354308778	575.471516408154	
